<svg height="512pt" viewBox="0 0 512.00023 512" width="512pt" xmlns="http://www.w3.org/2000/svg"><path d="m509.242188 480.871094-184.40625-314c-3.589844-6.117188-10.152344-9.871094-17.246094-9.871094h-.917969c-7.15625 0-13.765625 3.820312-17.335937 10.023438l-96.558594 167.816406-36.351563-57.980469c-3.71875-5.929687-10.269531-9.449219-17.257812-9.375-6.996094.109375-13.425781 3.867187-16.957031 9.910156l-119.480469 204.515625c-3.613281 6.183594-3.640625 13.828125-.078125 20.042969 3.566406 6.214844 10.183594 10.042969 17.347656 10.042969h364.996094c11.046875 0 20-8.953125 20-20 0-11.042969-8.953125-20-20-20h-224.988282l147.296876-255.992188 167.449218 285.121094c5.589844 9.523438 17.847656 12.710938 27.371094 7.117188s12.710938-17.847657 7.117188-27.371094zm-454.394532-8.875 85.234375-145.898438 30.101563 48.007813-56.324219 97.890625zm60.152344-241.996094c63.410156 0 115-51.589844 115-115s-51.589844-115-115-115-115 51.585938-115 115c0 63.410156 51.589844 115 115 115zm0-190c41.355469 0 75 33.644531 75 75s-33.644531 75-75 75-75-33.644531-75-75 33.644531-75 75-75zm0 0"/></svg>